<svg width="178" height="178" viewBox="0 0 178 178" fill="none" xmlns="http://www.w3.org/2000/svg">
<g clip-path="url(#clip0_7_3)">
<path d="M13.463 2.35299C11.955 3.83899 11.051 6.00799 14.208 19.005C16.099 26.791 30.86 70.203 35.89 82.675C46.125 108.049 52.676 107.212 56.429 107.695C58.262 107.931 60.045 107.501 61.586 106.448C65.783 103.584 67.183 102.749 68.804 101.781C69.373 101.442 69.98 101.079 70.74 100.612C75.277 108.046 80.878 119.579 86.316 130.775C93.633 145.842 101.2 161.423 107.246 169.485C111.091 174.61 115.249 176.118 118.061 176.479C123.443 177.171 129.009 174.287 132.244 169.131C135.525 163.899 135.636 157.694 132.532 152.941C126.143 143.151 32.616 20.011 18.596 3.10899C16.65 0.760992 14.331 1.49699 13.463 2.35299ZM126.526 165.543C124.687 168.476 121.702 170.14 118.922 169.782C116.74 169.502 114.569 167.997 112.647 165.433C106.989 157.89 99.567 142.606 92.388 127.825C85.83 114.322 79.636 101.567 74.569 94.075C74.004 93.24 73.131 92.738 72.203 92.618C71.44 92.52 70.639 92.681 69.943 93.131C67.677 94.594 62.148 97.891 57.78 100.872C57.58 101.009 57.463 101.022 57.29 101.001C54.975 102.199 54.828 100.44 50.921 95.137C44.628 86.595 26.858 36.421 21.718 19.941C19.724 13.55 21.848 17.074 23.41 19.084C40.296 40.808 120.673 147.121 126.88 156.632C128.849 159.646 127.988 163.212 126.526 165.543Z" fill="white"/>
<path d="M176.854 35.658C175.555 34.32 173.418 34.288 172.082 35.587C163.467 43.945 155.432 52.095 148.976 58.644C147.327 60.318 145.816 61.85 144.448 63.231L138.083 56.861L164.98 30.763C166.318 29.465 166.349 27.327 165.051 25.99C163.753 24.653 161.617 24.62 160.279 25.919L133.31 52.086L127.318 46.089L154.376 19.835C155.714 18.536 155.746 16.399 154.448 15.063C153.15 13.725 151.012 13.693 149.676 14.991L122.547 41.314L116.71 35.472L146.028 7.025C147.366 5.727 147.398 3.59 146.099 2.254C144.801 0.914997 142.665 0.883997 141.328 2.182L107.589 34.919C98.966 43.285 99.632 55.572 109.027 66.903L89.838 85.803C88.5 87.101 88.468 89.238 89.766 90.574C90.288 91.112 90.947 91.439 91.633 91.553C92.654 91.723 93.739 91.422 94.539 90.646L113.742 71.732C117.523 74.88 121.993 76.963 126.689 77.743C127.293 77.845 127.904 77.923 128.515 77.979C134.644 78.549 140.26 76.835 143.927 73.277C146.269 71.006 149.584 67.642 153.783 63.383C160.216 56.859 168.221 48.738 176.783 40.432C178.119 39.133 178.151 36.996 176.854 35.658ZM129.138 71.257C124.401 70.817 119.848 68.573 116.326 64.943C109.426 57.831 104.728 47.664 111.877 40.185L139.669 68C139.517 68.148 139.369 68.293 139.225 68.433C137.008 70.582 133.238 71.639 129.138 71.257Z" fill="white"/>
<path d="M74.588 116.551C73.194 115.312 71.061 115.438 69.823 116.832C56.242 132.113 31.597 159.107 23.281 166.483C19.147 170.15 12.635 168.671 9.14799 164.987C5.50099 161.135 6.05099 156.257 10.657 151.599C22.352 139.78 39.58 126.246 52.575 116.447C54.063 115.325 54.36 113.209 53.238 111.72C52.116 110.231 50 109.935 48.511 111.057C35.349 120.983 17.862 134.72 5.85899 146.851C-2.88301 155.688 -0.473008 164.643 4.24699 169.627C6.91399 172.442 10.691 174.468 14.703 175.134C19.167 175.875 23.922 174.935 27.76 171.53C37.37 163.007 65.025 132.389 74.869 121.312C76.107 119.922 75.981 117.787 74.588 116.551Z" fill="white"/>
</g>
<defs>
<clipPath id="clip0_7_3">
<rect width="177.807" height="177.807" fill="white"/>
</clipPath>
</defs>
</svg>
